<?xml version="1.0" encoding="UTF-8"?><svg id="Layer_1" xmlns="http://www.w3.org/2000/svg" viewBox="0 0 500 111"><path d="M40.952457577804125,107.048750208157799c-14.380230854580986,0-23.445642147332364-13.286113361611569-23.445642147332364-34.69975619750403,0-21.101639258376963,8.752939943754427-34.231049174009968,22.819763906378284-34.231049174009968,8.753875486715515,0,16.725637057978929,5.158116115850135,19.382579067412735,11.56705317064916-1.563292287944932-1.563292287944932-3.751527273883767-2.501174106417238-6.252233608818642-2.501174106417238-5.314819561829609,0-9.066346835713375,3.907295176903062-9.066346835713375,8.909175618255176,0,5.001880441350295,3.908698491342875,9.065879064231922,9.066346835713375,9.065879064231922,5.62729091082565,0,9.691289533706367-4.689409092354254,9.691289533706367-10.941174929694171,0-10.785407026676694-11.724224388108269-19.382111295932191-27.198104964178128-19.382111295932191C14.849873421037046,34.835592357736459,0,50.778647728780925,0,73.286875829124256c0,22.351524654362947,14.536466529079917,37.825873001913351,35.794809233434535,37.825873001913351,12.816938566636054,0,22.819763906378284-5.62729091082474,29.228233189696766-16.411762394540347l-2.031999311440813-1.407056613446912c-5.313884018867611,8.752939943755337-13.441881264629046,13.75482038510745-22.038585533886362,13.75482038510745Z"/><path d="M104.566572301566339,34.835592357736459c-20.789635680859647,0-34.856459643482594,15.474348347550404-34.856459643482594,37.982108676411372,0,23.133170798337233,14.848937878075958,38.295047796889776,35.950109364971468,38.295047796889776,12.660702892138033,0,22.664463774841352-5.62729091082474,29.072933058158924-16.411762394540347l-2.031999311439904-1.407056613446912c-5.314819561829609,8.752939943755337-13.442816807591043,13.75482038510745-22.351992425844401,13.75482038510745-14.380230854580986,0-23.445642147332364-12.816938566636964-23.445642147332364-36.887991183442864h47.985869559115599c.035550632520426-.034615089560248,.058003663586533-.057068120626354,.093554296106959-.091683210184783,1.043130401591043-21.662965035016896-11.039406940606568-35.233483456793692-30.416372750253686-35.233483456793692Zm-17.663051104968872,32.667756886063216c.624942697992992-17.975054682485279,7.815525896764484-30.010347105149776,17.193408538512813-30.010347105149776,9.377882641749238,0,14.380230854580986,12.191995868643062,13.911523831086015,30.010347105149776h-31.104932369598828Z"/><path d="M188.812215945768912,34.835592357736459c-9.847525208205298,0-17.506815430471761,9.065879064231922-21.258342704355528,24.695995314799802v-22.820231677858828h-28.291754685667001v2.656942009434715h12.349167086101261V106.580043184661918h-12.349167086101261v2.656942009434715h44.703984851687892v-2.656942009434715h-16.41223016602089v-27.822579890689667c0-23.758581267811678,9.378818184709417-41.576932504318393,21.726114184889411-41.576932504318393,4.063998622880717,0,7.034347524272562,1.875295865462249,8.440468594758386,4.84517699537173-1.718592419482775-1.406588841964549-3.750591730922679-2.344470660436855-6.095062391360443-2.344470660436855-5.314819561828699,0-9.066346835713375,3.907295176903062-9.066346835713375,8.909175618253357,0,5.001880441352114,3.908698491343785,9.065879064233741,9.066346835713375,9.065879064233741,5.62729091082565,0,9.691289533707277-4.688941320875529,9.691289533707277-10.941642701174715,0-6.877176306812544-5.158583887330678-11.879056748164658-12.504467217639103-11.879056748164658Z"/><path d="M240.389634932425906,106.892514533659778c-5.157648344369591,0-7.815525896765394-4.063998622881627-7.815525896765394-11.722821073666637V39.368298004112148h17.19434408147481v-2.656942009434715h-17.19434408147481V9.982893596956274c-4.532705646375689,2.031999311440813-11.566117627687163,4.376469971877668-15.942587599564831,5.470587464846176v21.257874932874984h-11.567053170648251v2.656942009434715h11.567053170648251v49.392458401081967c0,15.005641324054523,5.938826716862422,22.351992425843491,18.443293934501526,22.351992425843491,8.127997245761435,0,13.599052482088155-3.126116804409321,17.975522453965823-10.316232231700269l-2.031999311440813-1.406588841964549c-2.656942009432896,4.68894132087371-6.564704957815593,7.502586776286989-10.62870358069631,7.502586776286989Z"/><path d="M276.495044428935216,20.768300623632967c5.626355367865472,0,10.159061014241161-4.533173417858052,10.159061014241161-10.159996557202248,0-5.627290910826559-4.532705646375689-10.159996557202248-10.159061014241161-10.159996557202248-5.628226453787647,0-10.160932100163336,4.532705646375689-10.160932100163336,10.159996557202248,0,5.626823139344197,4.532705646375689,10.159996557202248,10.160932100163336,10.159996557202248Z"/><rect x="297.436238069487445" y="9.045011778485787" width="84.561857165042966" height="3.126584575889865"/><path d="M410.909179360425696,36.711355994677433h-28.291754685667911v2.656942009434715h12.348231543141083V106.580043184661918h-23.909671456021897V62.18899745345152c0-18.131290356985119-7.345883330308425-27.353405095715061-21.25740716139444-27.353405095715061-11.56705317064916,0-20.319993114404497,6.877644078293088-24.539291868823057,19.382111295932191v-17.506347658991217h-27.82304766217203v2.656942009434715h12.035760194145041V106.580043184661918h-25.006127806394943V36.711355994677433h-28.291754685667911v2.656942009434715h12.348231543141083V106.580043184661918h-12.348231543141083v2.656942009434715h80.495051913279895v-2.656942009434715h-11.2545818216513v-42.046575070773542c0-11.879056748164658,9.222582510210486-24.852230989299642,18.757636369418833-24.852230989299642,6.564704957816502,0,10.940239386733083,4.376469971877668,10.940239386733083,15.943055371046285v50.9557506890269h-11.097410604192191v2.656942009434715h79.0851886709479v-2.656942009434715h-12.191060325680155V36.711355994677433Z"/><circle cx="402.937417789162282" cy="10.608304066430719" r="10.159996557202248"/><path d="M497.968936231520274,100.640280924839317c-1.719527962442953,3.751059502403223-4.064934165840896,5.78352658532458-6.721876175275611,5.78352658532458s-4.21929875441856-2.032467082921357-4.21929875441856-5.627290910826559V63.908525415894474c0-18.444229477461704-10.784939255194331-29.072933058158014-29.542575624614983-29.072933058158014-14.848937878075958,0-24.852698760780186,6.877644078293088-24.852698760780186,17.506347658989398,0,6.09599793432244,4.064934165842715,10.78493925519615,9.691289533708186,10.78493925519615,5.158583887330678,0,9.065411292751378-4.063998622879808,9.065411292751378-9.065411292751378,0-5.001880441352114-3.751527273883767-8.909643389733901-9.065411292751378-8.909643389733901-2.656942009434715,0-5.00141266987157,1.094117492968508-6.720940632316342,2.9698811299113,2.188234985940653-6.09599793432244,9.377882641749238-10.159996557202248,18.912936500957585-10.159996557202248,11.097410604192191,0,16.880937189516771,5.470587464846176,16.880937189516771,15.943523142526828v12.035292422662678c-31.417403718596688,6.564704957816502-43.452228369778823,14.379763083101352-43.452228369778823,27.978815565189507,0,10.941174929694171,7.814590353804306,17.349644213012652,20.787764594937471,17.349644213012652,10.78493925519615,0,19.225407849955445-4.532705646375689,22.508228100343331-12.035292422664497,.781178372491922,7.346351101788969,6.408469283318482,12.035292422664497,14.536466529079917,12.035292422664497,6.409404826277751,0,10.941174929694171-2.9698811299113,14.223059637120969-9.534586087727803l-2.031063768479726-1.094117492970327Zm-26.572226723223139-9.065879064231922c0,7.815525896765394-8.127997245761435,15.318112673052383-16.724701515018751,15.318112673052383-6.877176306812544,0-10.62870358069631-4.845644766854093-10.62870358069631-13.911056059605471,0-12.504934989119647,7.190583198771492-18.912936500957585,27.353405095715061-24.540227411782325v23.133170798335414Z"/></svg>