<svg xmlns="http://www.w3.org/2000/svg" viewBox="0 0 500 111"><path d="M40.952 107.049c-14.38 0-23.445-13.286-23.445-34.7 0-21.102 8.753-34.231 22.82-34.231 8.753 0 16.725 5.158 19.382 11.567-1.563-1.563-3.751-2.501-6.252-2.501-5.315 0-9.066 3.907-9.066 8.909s3.908 9.066 9.066 9.066c5.627 0 9.691-4.69 9.691-10.941 0-10.786-11.724-19.382-27.198-19.382C14.85 34.836 0 50.779 0 73.286c0 22.352 14.536 37.827 35.795 37.827 12.817 0 22.82-5.628 29.228-16.412l-2.032-1.407c-5.314 8.753-13.442 13.755-22.039 13.755M104.567 34.836c-20.79 0-34.857 15.474-34.857 37.982 0 23.133 14.85 38.295 35.95 38.295 12.66 0 22.665-5.628 29.073-16.412l-2.032-1.407c-5.315 8.753-13.443 13.755-22.352 13.755-14.38 0-23.445-12.817-23.445-36.888h47.985l.094-.092c1.043-21.663-11.04-35.233-30.416-35.233M86.904 67.503c.624-17.975 7.815-30.01 17.193-30.01s14.38 12.192 13.911 30.01zM188.812 34.836c-9.847 0-17.507 9.065-21.258 24.696v-22.82h-28.292v2.656h12.35v67.212h-12.35v2.657h44.704v-2.657h-16.412V78.757c0-23.758 9.379-41.576 21.726-41.576 4.064 0 7.034 1.875 8.44 4.845-1.718-1.407-3.75-2.345-6.095-2.345-5.314 0-9.066 3.908-9.066 8.91 0 5.001 3.909 9.065 9.066 9.065 5.628 0 9.692-4.689 9.692-10.941 0-6.878-5.159-11.88-12.505-11.88M240.39 106.893c-5.158 0-7.816-4.064-7.816-11.723V39.368h17.194v-2.657h-17.194V9.983c-4.533 2.032-11.566 4.376-15.942 5.47v21.258h-11.568v2.657h11.568v49.393c0 15.005 5.938 22.352 18.443 22.352 8.128 0 13.599-3.126 17.975-10.316l-2.032-1.407c-2.657 4.689-6.564 7.503-10.628 7.503M276.495 20.768a10.14 10.14 0 0 0 10.16-10.16 10.14 10.14 0 0 0-10.16-10.16 10.14 10.14 0 0 0-10.16 10.16 10.14 10.14 0 0 0 10.16 10.16M297.436 9.045h84.562v3.127h-84.562zM410.91 36.711h-28.293v2.657h12.349v67.212h-23.91V62.189c0-18.131-7.346-27.353-21.257-27.353-11.567 0-20.32 6.877-24.54 19.382V36.71h-27.823v2.657h12.036v67.212h-25.006V36.711h-28.292v2.657h12.348v67.212h-12.348v2.657h80.495v-2.657h-11.254V64.533c0-11.879 9.222-24.852 18.757-24.852 6.565 0 10.94 4.377 10.94 15.943v50.956h-11.097v2.657H423.1v-2.657h-12.19z"/><circle cx="402.937" cy="10.608" r="10.16"/><path d="M497.969 100.64c-1.72 3.751-4.065 5.784-6.722 5.784s-4.22-2.033-4.22-5.627V63.909c0-18.445-10.784-29.073-29.542-29.073-14.849 0-24.853 6.877-24.853 17.506 0 6.096 4.065 10.785 9.692 10.785 5.158 0 9.065-4.064 9.065-9.066 0-5.001-3.751-8.91-9.065-8.91-2.657 0-5.002 1.095-6.721 2.97 2.188-6.095 9.378-10.16 18.913-10.16 11.097 0 16.88 5.471 16.88 15.944v12.036c-31.417 6.564-43.452 14.38-43.452 27.978 0 10.942 7.815 17.35 20.788 17.35 10.785 0 19.226-4.533 22.508-12.035.782 7.346 6.409 12.035 14.537 12.035 6.41 0 10.941-2.97 14.223-9.535zm-26.572-9.066c0 7.816-8.128 15.319-16.725 15.319-6.877 0-10.629-4.846-10.629-13.912 0-12.504 7.19-18.912 27.354-24.54z"/></svg>