<svg xmlns="http://www.w3.org/2000/svg" viewBox="0 0 16 16"><defs><linearGradient id="a" x1="0" x2="16" y1="8" y2="8" gradientUnits="userSpaceOnUse"><stop offset="0" stop-color="#dca0ff"/><stop offset=".086" stop-color="#c6a0ff"/><stop offset=".267" stop-color="#9fa0ff"/><stop offset=".412" stop-color="#86a0ff"/><stop offset=".5" stop-color="#7ea0ff"/><stop offset=".595" stop-color="#7ba8ff"/><stop offset=".75" stop-color="#73c1ff"/><stop offset=".945" stop-color="#67e8ff"/><stop offset="1" stop-color="#64f5ff"/></linearGradient></defs><path d="M0 0h16v16H0z" style="fill:url(#a)"/><path d="m12.01 10.988-.315-.275c-.688.923-1.592 1.415-2.575 1.415-1.749 0-2.87-1.651-2.87-4.226S7.41 3.617 9.1 3.617c.964 0 1.907.55 2.28 1.376a1.108 1.108 0 0 0-.766-.276c-.648 0-1.14.472-1.14 1.12 0 .63.511 1.14 1.16 1.14.708 0 1.219-.589 1.219-1.414 0-1.396-1.494-2.477-3.46-2.477-2.693 0-4.678 2.103-4.678 4.875 0 2.79 2.025 4.796 4.796 4.796 1.494 0 2.673-.59 3.499-1.77Z" style="fill:#fff"/></svg>