<?xml version="1.0" encoding="UTF-8"?><svg id="Layer_1" xmlns="http://www.w3.org/2000/svg" xmlns:xlink="http://www.w3.org/1999/xlink" viewBox="0 0 16 16"><defs><style>.cls-1{fill:#fff;}.cls-2{fill:url(#Primary_Gradient_);}</style><linearGradient id="Primary_Gradient_" x1="0" y1="7.999999999998181" x2="16" y2="7.999999999998181" gradientUnits="userSpaceOnUse"><stop offset="0" stop-color="#dca0ff"/><stop offset=".086442786287377" stop-color="#c6a0ff"/><stop offset=".267408220511671" stop-color="#9fa0ff"/><stop offset=".411593572524287" stop-color="#86a0ff"/><stop offset=".5" stop-color="#7ea0ff"/><stop offset=".595233132090757" stop-color="#7ba8ff"/><stop offset=".750468255069565" stop-color="#73c1ff"/><stop offset=".945368223574485" stop-color="#67e8ff"/><stop offset="1" stop-color="#64f5ff"/></linearGradient></defs><rect class="cls-2" y="-.000000000001819" width="16" height="16"/><path class="cls-1" d="m12.009817982308959,10.98772110495338l-.314483448999454-.275185851838614c-.687951795632216.923840050309082-1.592130213397468,1.415226856352092-2.574955161339858,1.415226856352092-1.749371937896285,0-2.869776977794572-1.651089443101228-2.869776977794572-4.226044604441995,0-2.574929493410309,1.159728304987766-4.285003834145755,2.850115345249833-4.285003834145755.96316331539947,0,1.906664998252381.55037170367541,2.280133344885144,1.375929259189434-.196564989588296-.176903357041738-.452114876809901-.275185851838614-.766598325810264-.275185851838614-.648628530543647,0-1.140066672442117.47172517350009-1.140066672442117,1.120379371972376,0,.628992565925728.51104843858775,1.140041004513478,1.159728304986857,1.140041004513478.707613428176046,0,1.218661866763796-.589669300838068,1.218661866763796-1.415226856352092,0-1.395565223809172-1.49387338653014-2.47664699861707-3.459471946558551-2.47664699861707-2.692873620751925,0-4.678108145397346,2.103178651983399-4.678108145397346,4.874698802912462,0,2.791130447616524,2.024557789734899,4.796052272733505,4.796077940663963,4.796052272733505,1.493822050673771,0,2.673211988205367-.589669300838068,3.49874387579257-1.769033570439206Z"/></svg>